<svg xmlns="http://www.w3.org/2000/svg" width="34" height="34" viewBox="0 0 34 34">
    <g fill="none" fill-rule="nonzero">
        <path fill="#E04F5F" d="M0 16.972C0 7.598 7.598 0 16.97 0c9.374 0 16.972 7.598 16.972 16.972 0 9.372-7.598 16.97-16.971 16.97C7.598 33.942 0 26.344 0 16.972z"/>
        <path fill="#FFF" d="M25.593 10.614a6.096 6.096 0 0 0-8.62 0h-.003a6.096 6.096 0 0 0-8.621 0c-2.38 2.38-2.038 5.94 0 8.62 2.158 2.84 6.097 7.522 8.621 7.522h.002c2.524 0 6.464-4.683 8.621-7.521 2.038-2.68 2.381-6.24 0-8.621z"/>
    </g>
</svg>
